<svg xmlns="http://www.w3.org/2000/svg" width="16" height="20" fill="none"><path fill="#333" d="m7.83 18.904.374-6.55-4.2-2.18-2.74 1.155 6.566 7.575ZM14.842 11.426l-2.446-1.192-4.187 2.12-.374 6.55 7.007-7.478Z"/><path fill="#666" d="M14.738 8.673 8.172 1.098l4.221 9.137 2.446 1.191-.101-2.753Z"/><path fill="#B3B3B3" d="M12.391 10.235 8.17 1.098l-4.167 9.076 4.2 2.18 4.188-2.12Z"/><path fill="#666" d="M4.003 10.174 8.17 1.098 1.164 8.575l.1 2.754 2.74-1.155Z"/><path stroke="#E6E6E6" stroke-linecap="round" stroke-width=".5" d="M8.171 1 1 8.545M7.823 19l.38-6.595 4.288-2.16M8.208 12.406l-4.302-2.223"/><path stroke="#E6E6E6" stroke-linecap="round" stroke-width=".5" d="m7.828 19-6.725-7.645L1 8.545"/><path stroke="#E6E6E6" stroke-linecap="round" stroke-width=".5" d="m7.823 19 7.172-7.545-.104-2.81M15 11.455l-2.504-1.21M8.173 1l-4.264 9.182-2.804 1.173M8.168 1l4.324 9.244M8.168 1l6.725 7.645"/></svg>