<svg xmlns="http://www.w3.org/2000/svg" width="18" height="20" fill="none"><path fill="#333" d="m17.63 12.975-.65-5.392-4.45 1.185-1.047 3.062-1.056 3.06 1.576 1.3 1.583 1.299 4.044-4.514Z"/><path fill="#666" d="m14.682 2.849-2.93-.869-2.94-.869-.666 1.827-.666 1.827 5.05 4.003 4.45-1.185-2.298-4.734Z"/><path fill="#B3B3B3" d="M7.48 4.766 4.874 6.593 2.26 8.419l.909 3.127.91 3.134 6.349.21L12.53 8.77 7.48 4.766Z"/><path fill="#333" d="m9.185 18.886 4.4-1.397-3.158-2.598-6.35-.211-.381 1.234-.382 1.234 2.931.869 2.94.869Z"/><path fill="#666" d="M8.811 1.111 4.411 2.5.367 7.022l.942.699.95.698 2.614-1.827L7.48 4.765 8.81 1.111Z"/><path fill="#333" d="m3.168 11.545-.91-3.126L.368 7.022l.65 5.392 2.297 4.734.382-1.234.382-1.235-.91-3.134Z"/><path stroke="#E6E6E6" stroke-linecap="round" stroke-width=".5" d="M4.03 14.721 2.187 8.404M.937 12.44l2.322 4.782M4.031 14.722l-.78 2.492M17.062 7.56l-4.498 1.193M12.564 8.753l-2.119 6.187M17.062 7.56 14.74 2.777M14.74 2.777 8.812 1.023M13.629 17.571l-4.442 1.405M17.062 7.56l.658 5.448M7.465 4.718 2.187 8.404M4.371 2.428.28 6.99M.937 12.44.279 6.99M7.465 4.718l5.099 4.043M9.187 18.976 3.26 17.221M7.465 4.718l1.347-3.695M13.628 17.571l-3.183-2.63M4.031 14.722l6.414.219M4.37 2.428l4.442-1.405M2.195 8.404.28 6.991M13.629 17.571l4.092-4.563"/></svg>