<svg xmlns="http://www.w3.org/2000/svg" width="18" height="20" fill="none"><path fill="#333" d="m15.076 12.484.927-3.522.927-3.522-3.326-.642-3.327-.643 4.799 8.33Z"/><path fill="#333" d="m15.076 12.484-2.847 3.213-2.847 3.213 3.498-2.18 3.498-2.18-1.302-2.066Z"/><path fill="#B3B3B3" d="M5.618 12.484 7.952 8.32l2.335-4.165-4.327.643-4.328.642 3.986 7.044Z"/><path fill="#666" d="M5.617 12.484 3.34 13.525l-2.278 1.042 4.156 2.18 4.157 2.18-3.758-6.443Z"/><path fill="#333" d="m15.076 12.485.65 1.041.651 1.042.277-4.564.276-4.563-1.854 7.044Z"/><path fill="#666" d="M5.617 12.485 3.624 8.963 1.623 5.441l-.277 4.563-.276 4.555 4.547-2.074Z"/><path fill="#666" d="M10.286 4.155 7.95 8.32l-2.334 4.164h9.459l-4.79-8.329Z"/><path fill="#666" d="m9.383 18.91 2.847-3.213 2.846-3.213H5.617l3.766 6.426Z"/><path fill="#333" d="m16.932 5.44-4.157-2.18L8.62 1.082l.838 1.545.83 1.538 6.645 1.277Z"/><path fill="#666" d="m1.623 5.44 4.327-.642 4.327-.643-.822-1.529-.83-1.537L1.624 5.44Z"/><path stroke="#E6E6E6" stroke-linecap="round" stroke-width=".5" d="m1.55 5.393-.562 9.215M15.133 12.51h-9.55M15.132 12.509l-4.84-8.41M15.131 12.51 9.381 19M15.132 12.51l1.88-7.117M5.583 12.51 1.549 5.393M15.132 12.51l1.31 2.098M5.583 12.51.988 14.608M5.584 12.509l4.717-8.41M5.584 12.51 9.382 19M10.292 4.099 8.617 1M10.293 4.099l6.718 1.293M10.292 4.099 1.548 5.392M8.617 1l8.394 4.392M9.38 19l7.069-4.393M8.617 1 1.549 5.392M9.382 19 .988 14.607M17.012 5.393l-.561 9.207"/></svg>