<svg xmlns="http://www.w3.org/2000/svg" width="22" height="20" fill="none"><path fill="#666" d="m11.922 1.12 1.163 6.348 1.164 6.348 3.338 2.563 3.34 2.562-9.005-17.822Z"/><path fill="#B3B3B3" d="M11.923 1.12 6.516 9.62 1.11 18.123l6.57-2.153 6.57-2.154L11.924 1.12Z"/><path fill="#333" d="M14.25 13.816 7.68 15.97l-6.57 2.153 9.908.409 9.91.409-6.678-5.125Z"/><path stroke="#fff" stroke-linecap="round" stroke-width=".5" d="M11.922 1 1 18.174M11.922 1l2.35 12.824M11.922 1l9.094 18M14.271 13.824 21.017 19M21.016 19 1 18.174M14.271 13.824 1 18.174"/></svg>