<svg xmlns="http://www.w3.org/2000/svg" width="18" height="20" fill="none"><path fill="#B3B3B3" d="M9.806.746 5.098 5.373.39 10l6.22.975 6.218.975L9.806.746Z"/><path fill="#333" d="m9.806.746 1.51 5.602 1.512 5.602 2.39-.975 2.39-.975L9.807.746Z"/><path fill="#666" d="m8.193 19.254 2.318-3.652 2.317-3.652-6.219-.975L.39 10l7.804 9.254Z"/><path fill="#333" d="m8.193 19.254 4.708-4.627L17.61 10l-2.39.975-2.39.975-4.636 7.304Z"/><path stroke="#E6E6E6" stroke-linecap="round" stroke-width=".5" d="M12.866 11.97 17.695 10M.304 10 9.814.653M.304 10l7.88 9.346M12.867 11.97l-4.682 7.377M17.696 10 9.816.653M17.695 10l-9.51 9.346M12.867 11.97.304 10M12.868 11.97 9.815.652"/></svg>